Coordinates
version=1
nRows=16
nColumns=22
inDegrees=yes

Units are S.I. units (second, meters, Newtons, ...)
If the header above contains a line with 'inDegrees', this indicates whether rotational values are in degrees (yes) or radians (no).

endheader
time	pelvis_tilt	pelvis_list	pelvis_rotation	pelvis_tx	pelvis_ty	pelvis_tz	hip_flexion_r	hip_adduction_r	hip_rotation_r	knee_angle_r	ankle_angle_r	subtalar_angle_r	hip_flexion_l	hip_adduction_l	hip_rotation_l	knee_angle_l	ankle_angle_l	subtalar_angle_l	lumbar_extension	lumbar_bending	lumbar_rotation
      2.23000000	     -1.26932037	      0.62862669	     84.90869321	      0.44024803	      0.91510139	     -0.35429876	     21.71216621	     -3.91219934	     -1.63430317	    -12.83039337	     -5.07337138	      4.74075119	     -9.16224677	      2.36866607	     10.87517305	    -20.83067913	     16.62601447	     -1.77939513	     -6.18058400	     -9.20700742	    -11.96021884
      2.24000000	     -0.95177823	      0.52501526	     85.04350172	      0.44406648	      0.91582286	     -0.36163453	     21.75947194	     -3.45660034	     -1.96197680	    -13.71480249	     -5.08108865	      4.71415605	     -9.38717821	      1.80203550	     11.00281981	    -21.11721839	     15.99818482	     -1.56854979	     -5.91569486	     -8.77602229	    -11.61699687
      2.25000000	     -0.58741128	      0.42304425	     85.16330331	      0.44788456	      0.91669685	     -0.36905755	     21.74794091	     -2.95963390	     -2.28068495	    -14.53055057	     -4.91315609	      4.82407726	     -9.59728288	      1.20125893	     11.16705936	    -21.43753556	     15.33408456	     -1.07118078	     -5.63524287	     -8.28621475	    -11.27233331
      2.26000000	     -0.22465163	      0.36885580	     85.26651344	      0.45167072	      0.91775693	     -0.37646900	     21.64386355	     -2.47170469	     -2.57311596	    -15.28106926	     -4.61406436	      5.09922933	     -9.78302900	      0.62395328	     11.27637446	    -21.87305069	     14.54573128	     -0.73217782	     -5.41020952	     -7.79815505	    -10.93882132
      2.27000000	      0.14094388	      0.34320459	     85.37900444	      0.45539495	      0.91894781	     -0.38385755	     21.43803984	     -1.98651867	     -2.83885701	    -15.91117780	     -4.24956605	      5.45444904	     -9.91889228	      0.05905989	     11.37418676	    -22.42731970	     13.67043686	     -0.40678389	     -5.22044661	     -7.30379969	    -10.64513767
      2.28000000	      0.50440721	      0.33917179	     85.50882229	      0.45905287	      0.92023009	     -0.39121164	     21.13885802	     -1.50373024	     -3.07487413	    -16.41816945	     -3.86537764	      5.84869581	    -10.00120920	     -0.49177622	     11.47802912	    -23.08545878	     12.69642509	     -0.06956644	     -5.05825865	     -6.80678151	    -10.41839294
      2.29000000	      0.84764316	      0.35196276	     85.68135316	      0.46258212	      0.92155372	     -0.39846637	     20.74176479	     -1.04891228	     -3.31680909	    -16.76969930	     -3.46044726	      6.18868824	     -9.98095938	     -1.00910024	     11.58845345	    -23.91044939	     11.64613577	      0.21659137	     -4.93161541	     -6.32947080	    -10.24379502
      2.30000000	      1.16767683	      0.37233154	     85.90663136	      0.46596123	      0.92287149	     -0.40559387	     20.26525350	     -0.62451262	     -3.57826288	    -16.97535220	     -3.05202982	      6.44097979	     -9.84517546	     -1.49339484	     11.71353688	    -24.89764317	     10.52535850	      0.45145474	     -4.83324905	     -5.87252428	    -10.14394817
      2.31000000	      1.45544452	      0.39709575	     86.19239649	      0.46916024	      0.92414039	     -0.41254726	     19.73244161	     -0.24461620	     -3.90123406	    -17.06131293	     -2.65626308	      6.57621628	     -9.56970049	     -1.93685599	     11.83901347	    -26.07222899	      9.34940265	      0.58442784	     -4.76795563	     -5.44571247	    -10.11352811
      2.32000000	      1.71818218	      0.42191106	     86.53550826	      0.47218683	      0.92533780	     -0.41932530	     19.14137698	      0.10729635	     -4.24024913	    -17.01529714	     -2.25249960	      6.63078863	     -9.16608661	     -2.34874888	     11.98029873	    -27.40256543	      8.09483213	      0.77387648	     -4.72907625	     -5.03888111	    -10.14841124
      2.33000000	      1.95201971	      0.44617995	     86.94878444	      0.47498328	      0.92643383	     -0.42587510	     18.52222265	      0.41185283	     -4.68330924	    -16.88315897	     -1.88014260	      6.60052144	     -8.60444074	     -2.72610746	     12.10971851	    -28.92794452	      6.79416130	      0.77210808	     -4.72538828	     -4.65373018	    -10.23624812
      2.34000000	      2.16538289	      0.46736326	     87.42384722	      0.47757212	      0.92740338	     -0.43217963	     17.88630526	      0.68654854	     -5.17924950	    -16.68141629	     -1.49962950	      6.49559445	     -7.88808275	     -3.08187945	     12.21862609	    -30.63409953	      5.42503871	      0.73022069	     -4.75621580	     -4.28104066	    -10.37070338
      2.35000000	      2.36401069	      0.47846274	     87.96265685	      0.47990745	      0.92821783	     -0.43818504	     17.26776004	      0.93019430	     -5.74575086	    -16.45033699	     -1.13306797	      6.30997688	     -6.99630712	     -3.41879466	     12.31130585	    -32.53560661	      4.01706757	      0.59771034	     -4.81682851	     -3.90541392	    -10.54420521
      2.36000000	      2.55351097	      0.45483241	     88.53859536	      0.48203504	      0.92882168	     -0.44387682	     16.71749572	      1.15883158	     -6.31878984	    -16.23325375	     -0.71123361	      6.02912319	     -5.90649190	     -3.74561379	     12.35472875	    -34.62409425	      2.53828371	      0.27746869	     -4.87585499	     -3.52175647	    -10.71759401
      2.37000000	      2.75900769	      0.45753915	     89.15818485	      0.48393493	      0.92933549	     -0.44930288	     16.15644471	      1.38879728	     -6.95538270	    -16.00896313	     -0.32932943	      5.81651381	     -4.70724368	     -4.09230845	     12.36457576	    -36.85265438	      0.97312796	     -0.15567728	     -4.99940835	     -3.10457222	    -10.87883832
      2.38000000	      2.98561193	      0.47170657	     89.81014534	      0.48559566	      0.92973411	     -0.45445333	     15.61901745	      1.63008920	     -7.60525660	    -15.81056908	      0.04822616	      5.62659104	     -3.38887810	     -4.45575038	     12.36533326	    -39.20662727	     -0.67510053	     -0.69480233	     -5.16437644	     -2.63927292	    -11.02069736
